{
    "asset" : {
        "generator" : "Khronos glTF Blender I/O v1.7.33",
        "version" : "2.0"
    },
    "scene" : 0,
    "scenes" : [
        {
            "name" : "Scene",
            "nodes" : [
                0
            ]
        }
    ],
    "nodes" : [
        {
            "mesh" : 0,
            "name" : "Sheep"
        }
    ],
    "materials" : [
        {
            "doubleSided" : true,
            "name" : "Material",
            "pbrMetallicRoughness" : {
                "baseColorFactor" : [
                    0.0030073272064328194,
                    0,
                    0.49167028069496155,
                    1
                ],
                "metallicFactor" : 0
            }
        }
    ],
    "meshes" : [
        {
            "name" : "Plane.002",
            "primitives" : [
                {
                    "attributes" : {
                        "POSITION" : 0,
                        "NORMAL" : 1,
                        "TEXCOORD_0" : 2
                    },
                    "indices" : 3,
                    "material" : 0
                }
            ]
        }
    ],
    "accessors" : [
        {
            "bufferView" : 0,
            "componentType" : 5126,
            "count" : 1874,
            "max" : [
                0.6500000357627869,
                1.1629698276519775,
                0.29146528244018555
            ],
            "min" : [
                -0.6499999761581421,
                0.0018471479415893555,
                -0.29146528244018555
            ],
            "type" : "VEC3"
        },
        {
            "bufferView" : 1,
            "componentType" : 5126,
            "count" : 1874,
            "type" : "VEC3"
        },
        {
            "bufferView" : 2,
            "componentType" : 5126,
            "count" : 1874,
            "type" : "VEC2"
        },
        {
            "bufferView" : 3,
            "componentType" : 5123,
            "count" : 2838,
            "type" : "SCALAR"
        }
    ],
    "bufferViews" : [
        {
            "buffer" : 0,
            "byteLength" : 22488,
            "byteOffset" : 0
        },
        {
            "buffer" : 0,
            "byteLength" : 22488,
            "byteOffset" : 22488
        },
        {
            "buffer" : 0,
            "byteLength" : 14992,
            "byteOffset" : 44976
        },
        {
            "buffer" : 0,
            "byteLength" : 5676,
            "byteOffset" : 59968
        }
    ],
    "buffers" : [
        {
            "byteLength" : 65644,
            "uri" : "data:application/octet-stream;base64,"
        }
    ]
}
